<svg width="138" height="40" viewBox="0 0 138 40" fill="none" xmlns="http://www.w3.org/2000/svg">
<path d="M26.1609 1.12998V8.54016C26.1609 10.9444 24.1782 12.8904 21.7285 12.8904H21.6638C20.4354 12.8833 19.3291 12.8904 19.3291 12.8904C19.1207 12.8904 18.8908 12.8692 18.6897 12.8904C17.3104 13.0314 16.1107 13.6448 15.1049 14.7376C15.0762 14.7658 15.0474 14.8011 15.0259 14.8293C14.2141 15.8587 13.7687 17.1913 13.7687 18.6296V18.7001C13.7687 19.6237 13.9627 20.505 14.3147 21.2947C14.6667 22.0844 14.4871 23.001 13.8118 23.5509C13.1509 24.0938 12.3679 24.7284 11.8434 25.1443C10.3133 23.4381 9.41527 21.2101 9.41527 18.7776V18.7071C9.41527 13.4121 13.7328 8.99845 19.5949 8.99845C19.9612 8.99845 21.1538 8.99845 21.7141 8.99845V0.33326C21.24 0.298007 20.7586 0.276855 20.2773 0.276855C9.09918 0.276855 0.0402832 9.16767 0.0402832 20.1384C0.0402832 29.0997 6.08912 36.6721 14.3937 39.1398V31.786C14.3937 29.3606 16.398 27.3935 18.8693 27.3935H18.8908C20.1193 27.4005 21.2256 27.3935 21.2256 27.3935C21.4339 27.3935 21.6638 27.4146 21.865 27.3935C23.2443 27.2525 24.444 26.6391 25.4497 25.5462C25.4785 25.518 25.5072 25.4828 25.5288 25.4546C26.3405 24.4252 26.7859 23.0926 26.7859 21.6543V21.5838C26.7859 20.8646 26.477 19.8987 26.1681 19.1231C25.8233 18.2559 26.0891 17.2618 26.8147 16.6695C27.4397 16.1548 28.079 15.6472 28.7112 15.1466C30.2414 16.8528 31.1394 19.0808 31.1394 21.5133V21.5838C31.1394 26.8788 26.8219 31.2925 20.9598 31.2925C20.5934 31.2925 19.4009 31.2925 18.8405 31.2925V39.9436C19.3147 39.9788 19.796 40 20.2773 40C31.4555 40 40.5144 31.1091 40.5144 20.1384C40.5144 11.1771 34.4655 3.60474 26.1609 1.12998Z" fill="#1D8AED"/>
<path d="M126.175 17.8752V33.5486C128.747 33.5486 130.837 31.4969 130.837 28.9728V13.2993C128.266 13.2993 126.175 15.351 126.175 17.8752Z" fill="white"/>
<path d="M117.784 11.3181H133.302C135.895 11.3181 138 9.2523 138 6.70703H122.483C119.889 6.70703 117.784 8.77286 117.784 11.3181Z" fill="white"/>
<path d="M62.7199 6.77002C62.1955 7.17895 61.434 7.79941 60.7659 8.34935C59.9829 8.99096 59.753 10.0627 60.1481 10.9863C60.4857 11.79 60.6725 12.6855 60.6725 13.6232V13.7008C60.6725 15.2307 60.1984 16.6479 59.3363 17.7478C59.322 17.7619 59.3076 17.776 59.3004 17.7901C58.2156 18.9887 56.9225 19.6585 55.4355 19.8066C55.22 19.8277 54.9757 19.8066 54.753 19.8066C54.753 19.8066 53.5748 19.8136 52.2674 19.8066H52.2458C49.6093 19.8066 47.4757 21.9006 47.4757 24.4882V33.5553C50.0906 33.5553 52.2171 31.4753 52.2171 28.9019V23.9664C52.8133 23.9664 54.0849 23.9664 54.4728 23.9664C60.7156 23.9664 65.3133 19.2637 65.3133 13.6232V13.5457C65.299 10.9581 64.3435 8.58202 62.7199 6.77002Z" fill="white"/>
<path d="M101.067 6.7627V29.7265C101.067 31.8346 99.3146 33.5409 97.1666 33.5409H96.4482V10.5912C96.4482 8.48304 98.1867 6.7627 100.335 6.7627H101.067Z" fill="white"/>
<path d="M66.8722 20.2088C66.786 26.0749 70.8736 31.3487 76.513 33.0902C77.023 33.2453 77.5403 33.3723 78.0575 33.471C78.0791 33.471 78.0862 33.4639 78.0862 33.4498L78.1078 30.8129V30.7283C78.1006 29.8187 77.5906 29.0291 76.8434 28.5919C76.7572 28.5426 76.6566 28.4932 76.5417 28.4439C74.444 27.5062 72.8707 25.8281 71.9656 23.7411C70.069 19.3627 72.1452 14.0042 76.5417 12.0442C76.6495 11.9948 76.75 11.9455 76.8434 11.8961C77.5906 11.459 78.0934 10.6693 78.1078 9.75978V9.67517L78.0862 7.03824C78.0862 7.03119 78.0791 7.01709 78.0575 7.01709C77.5403 7.1158 77.023 7.24271 76.513 7.39782C70.8664 9.13227 66.7932 14.4132 66.8722 20.2793V20.2088Z" fill="white"/>
<path d="M94.0632 20.2088C94.1494 26.0749 90.0618 31.3487 84.4225 33.0902C83.9124 33.2453 83.3952 33.3723 82.8779 33.471C82.8564 33.471 82.8492 33.4639 82.8492 33.4498L82.8276 30.8129V30.7283C82.8348 29.8187 83.3449 29.0291 84.092 28.5919C84.1782 28.5426 84.2788 28.4932 84.3937 28.4439C86.4914 27.5062 88.0647 25.8281 88.9699 23.7411C90.8664 19.3627 88.7903 14.0042 84.3937 12.0442C84.286 11.9948 84.1854 11.9455 84.092 11.8961C83.3449 11.459 82.842 10.6693 82.8276 9.75978V9.67517L82.8492 7.03824C82.8492 7.03119 82.8564 7.01709 82.8779 7.01709C83.3952 7.1158 83.9124 7.24271 84.4225 7.39782C90.069 9.13227 94.1423 14.4132 94.0632 20.2793V20.2088Z" fill="white"/>
<path d="M104.214 21.2167C103.826 20.554 103.797 19.7502 104.113 19.0592L110.169 8.93456C110.78 7.61609 112.123 6.77002 113.603 6.77002H116.261L115.974 7.40457L108.797 20.1732L118.222 33.5482H114.918C113.56 33.5482 112.31 32.8291 111.635 31.6728L104.214 21.2167Z" fill="white"/>
</svg>
